<?xml version="1.0" standalone="no"?>
<!DOCTYPE svg PUBLIC "-//W3C//DTD SVG 20010904//EN"
 "http://www.w3.org/TR/2001/REC-SVG-20010904/DTD/svg10.dtd">
<svg version="1.0" xmlns="http://www.w3.org/2000/svg"
 width="2134.000000pt" height="2134.000000pt" viewBox="0 0 2134.000000 2134.000000"
 preserveAspectRatio="xMidYMid meet">
<metadata>
Created by potrace 1.16, written by Peter Selinger 2001-2019
</metadata>
<g transform="translate(0.000000,2134.000000) scale(0.100000,-0.100000)"
fill="#000000" stroke="none">
<path d="M7545 21330 c-1339 -6 -1876 -11 -1945 -19 -1073 -136 -2009 -480
-2850 -1049 -1045 -707 -1847 -1709 -2315 -2892 -186 -471 -337 -1043 -374
-1414 -34 -347 -36 -580 -36 -5286 0 -5223 -1 -5133 71 -5530 170 -935 579
-1866 1153 -2628 954 -1265 2336 -2126 3871 -2411 407 -76 226 -73 5791 -78
l4966 -4 254 56 c434 95 685 164 994 272 1521 530 2743 1576 3483 2982 309
585 468 1033 637 1790 l76 341 -4 4973 c-4 4936 -6 5185 -38 5517 -29 313
-158 836 -304 1240 -702 1939 -2272 3393 -4245 3934 -593 163 -848 187 -2160
206 -736 11 -4168 10 -7025 0z m3630 -5090 c226 -5 473 -14 550 -20 490 -38
1093 -187 1547 -381 249 -106 407 -192 638 -344 860 -569 1363 -1413 1482
-2490 19 -176 16 -635 -5 -799 -56 -417 -154 -741 -337 -1111 -228 -460 -414
-704 -961 -1260 l-177 -180 237 -580 c547 -1342 624 -1523 651 -1534 38 -16
177 -55 454 -127 394 -104 473 -140 528 -241 67 -123 77 -241 84 -1043 7 -673
3 -752 -37 -833 -30 -60 -106 -128 -191 -171 -65 -33 -88 -39 -179 -46 -307
-27 -2381 -41 -2868 -20 -206 9 -215 10 -277 39 -128 60 -149 81 -208 204
-126 261 -354 897 -962 2679 l-279 818 -222 0 c-240 0 -468 13 -632 36 -58 8
-113 14 -123 14 -17 0 -18 -26 -16 -672 l3 -673 50 -12 c28 -6 162 -34 300
-63 474 -98 583 -148 655 -293 57 -118 62 -161 67 -613 8 -674 -16 -1111 -68
-1250 -37 -99 -128 -162 -269 -185 -139 -22 -644 -31 -2071 -36 -1469 -5
-2380 4 -2658 27 -89 7 -113 13 -176 44 -88 44 -167 115 -194 176 -33 74 -40
187 -47 693 -7 577 5 931 36 1051 47 183 132 252 389 316 104 26 527 118 625
136 l38 7 -6 1131 c-3 622 -9 2043 -12 3159 -4 1115 -7 2027 -8 2027 -2 0
-124 27 -272 60 -516 115 -551 129 -696 278 l-98 99 0 874 0 874 122 122 123
123 2530 0 c1391 0 2715 -5 2940 -10z"/>
<path d="M5872 15113 l3 -728 255 -57 c140 -31 384 -82 543 -114 l287 -58 0
-3487 0 -3487 -147 -36 c-82 -19 -327 -72 -545 -117 l-398 -83 0 -744 0 -745
2088 7 c1148 3 2196 9 2330 13 l242 6 -2 730 -3 731 -160 33 c-148 31 -671
144 -827 179 l-68 16 0 1044 0 1044 88 -5 c48 -3 290 -12 537 -20 429 -15 856
-37 994 -51 63 -7 64 -8 81 -48 22 -49 150 -417 660 -1896 213 -619 437 -1267
497 -1440 l109 -315 164 -6 c91 -4 773 -10 1517 -14 l1351 -8 -5 394 c-3 217
-8 551 -12 743 l-6 350 -481 120 -481 120 -178 436 c-686 1680 -875 2157 -875
2212 0 22 8 32 43 49 161 81 675 565 855 805 213 284 478 816 571 1146 60 215
84 449 83 828 0 415 -31 677 -107 918 -250 789 -789 1404 -1575 1795 -393 196
-882 348 -1292 401 -423 55 -615 58 -3486 63 l-2652 4 2 -728z m5043 -1173
c384 -23 619 -68 831 -161 371 -162 629 -490 714 -908 59 -294 47 -661 -29
-884 -31 -88 -110 -235 -172 -317 -69 -91 -203 -221 -282 -273 -159 -106 -366
-170 -632 -197 -151 -15 -801 -29 -1387 -30 l-488 0 0 1396 0 1397 633 -6
c347 -3 713 -11 812 -17z"/>
<path d="M9872 12574 l3 -989 400 -3 c452 -3 917 11 1078 33 140 18 244 47
337 93 59 28 95 57 170 132 182 183 230 318 230 650 0 225 -27 346 -119 535
-107 218 -221 317 -486 418 -180 70 -393 87 -1363 113 l-252 7 2 -989z"/>
</g>
</svg>
